<mxfile host="Electron" agent="Mozilla/5.0 (Macintosh; Intel Mac OS X 10_15_7) AppleWebKit/537.36 (KHTML, like Gecko) draw.io/26.2.15 Chrome/134.0.6998.205 Electron/35.2.1 Safari/537.36" version="26.2.15">
  <diagram name="DevOps RAG Workflow" id="nh39B_BaF2rITa8Zk6Yl">
    <mxGraphModel dx="2009" dy="1429" grid="1" gridSize="10" guides="1" tooltips="1" connect="1" arrows="1" fold="1" page="1" pageScale="1" pageWidth="1169" pageHeight="827" math="0" shadow="0">
      <root>
        <mxCell id="0" />
        <mxCell id="1" parent="0" />
        <mxCell id="BUdktx9oHFw2yGkDGHVQ-1" value="DevOps RAG Workflow Architecture" style="text;html=1;strokeColor=none;fillColor=none;align=center;verticalAlign=middle;whiteSpace=wrap;rounded=0;fontSize=20;fontStyle=1" vertex="1" parent="1">
          <mxGeometry x="325" y="20" width="450" height="30" as="geometry" />
        </mxCell>
        <mxCell id="BUdktx9oHFw2yGkDGHVQ-2" value="" style="group;strokeColor=default;dashed=1;" vertex="1" connectable="0" parent="1">
          <mxGeometry x="40" y="80" width="350" height="550" as="geometry" />
        </mxCell>
        <mxCell id="BUdktx9oHFw2yGkDGHVQ-4" value="&lt;b&gt;Git Repositories&lt;/b&gt;&lt;br&gt;&lt;i&gt;e.g., k8s-deployment.yaml&lt;/i&gt;&lt;div style=&quot;text-align: left;&quot;&gt;&lt;br&gt;&lt;/div&gt;" style="shape=cylinder3;whiteSpace=wrap;html=1;boundedLbl=1;backgroundOutline=1;size=15;fillColor=#ffe6cc;strokeColor=#d79b00;align=center;" vertex="1" parent="BUdktx9oHFw2yGkDGHVQ-2">
          <mxGeometry x="52.5" y="52.38095238095238" width="280" height="117.85714285714286" as="geometry" />
        </mxCell>
        <mxCell id="BUdktx9oHFw2yGkDGHVQ-5" value="&lt;b&gt;Confluence / Wiki&lt;/b&gt;&lt;br&gt;&lt;i&gt;e.g., DB Failover Runbook&lt;/i&gt;&lt;div style=&quot;text-align: left;&quot;&gt;&lt;br&gt;&lt;/div&gt;" style="shape=cylinder3;whiteSpace=wrap;html=1;boundedLbl=1;backgroundOutline=1;size=15;fillColor=#ffe6cc;strokeColor=#d79b00;align=center;" vertex="1" parent="BUdktx9oHFw2yGkDGHVQ-2">
          <mxGeometry x="52.5" y="183.33333333333334" width="277.5" height="117.85714285714286" as="geometry" />
        </mxCell>
        <mxCell id="BUdktx9oHFw2yGkDGHVQ-6" value="&lt;b&gt;Jira / Ticketing&lt;/b&gt;&lt;br&gt;&lt;i&gt;e.g., Incident Ticket&lt;/i&gt;" style="shape=cylinder3;whiteSpace=wrap;html=1;boundedLbl=1;backgroundOutline=1;size=15;fillColor=#ffe6cc;strokeColor=#d79b00;align=center;" vertex="1" parent="BUdktx9oHFw2yGkDGHVQ-2">
          <mxGeometry x="52.5" y="314.2857142857143" width="277.5" height="117.85714285714286" as="geometry" />
        </mxCell>
        <mxCell id="BUdktx9oHFw2yGkDGHVQ-7" value="&lt;b&gt;Logging &amp;amp; Monitoring&lt;/b&gt;&lt;br&gt;&lt;i&gt;e.g., Application Log&lt;/i&gt;&lt;div style=&quot;text-align: left;&quot;&gt;&lt;br&gt;&lt;/div&gt;" style="shape=cylinder3;whiteSpace=wrap;html=1;boundedLbl=1;backgroundOutline=1;size=15;fillColor=#ffe6cc;strokeColor=#d79b00;align=center;" vertex="1" parent="BUdktx9oHFw2yGkDGHVQ-2">
          <mxGeometry x="52.5" y="445.23809523809524" width="277.5" height="104.76190476190476" as="geometry" />
        </mxCell>
        <mxCell id="BUdktx9oHFw2yGkDGHVQ-3" value="1. Data Sources" style="text;html=1;strokeColor=none;fillColor=none;align=center;verticalAlign=middle;whiteSpace=wrap;rounded=0;fontSize=14;fontStyle=1" vertex="1" parent="BUdktx9oHFw2yGkDGHVQ-2">
          <mxGeometry width="350" height="39.285714285714285" as="geometry" />
        </mxCell>
        <mxCell id="BUdktx9oHFw2yGkDGHVQ-8" value="" style="group;dashed=1;strokeColor=default;" vertex="1" connectable="0" parent="1">
          <mxGeometry x="540" y="90" width="200" height="350" as="geometry" />
        </mxCell>
        <mxCell id="BUdktx9oHFw2yGkDGHVQ-10" value="Data Connectors" style="rhombus;whiteSpace=wrap;html=1;fillColor=#d5e8d4;strokeColor=#82b366;" vertex="1" parent="BUdktx9oHFw2yGkDGHVQ-8">
          <mxGeometry x="60" y="40" width="80" height="60" as="geometry" />
        </mxCell>
        <mxCell id="BUdktx9oHFw2yGkDGHVQ-11" value="Data Cleaning" style="rhombus;whiteSpace=wrap;html=1;fillColor=#d5e8d4;strokeColor=#82b366;" vertex="1" parent="BUdktx9oHFw2yGkDGHVQ-8">
          <mxGeometry x="60" y="130" width="80" height="60" as="geometry" />
        </mxCell>
        <mxCell id="BUdktx9oHFw2yGkDGHVQ-12" value="Chunking" style="rhombus;whiteSpace=wrap;html=1;fillColor=#d5e8d4;strokeColor=#82b366;align=center;" vertex="1" parent="BUdktx9oHFw2yGkDGHVQ-8">
          <mxGeometry x="50" y="210" width="100" height="80" as="geometry" />
        </mxCell>
        <mxCell id="BUdktx9oHFw2yGkDGHVQ-9" value="2. Ingestion &amp;amp; Preprocessing" style="text;html=1;strokeColor=none;fillColor=none;align=center;verticalAlign=middle;whiteSpace=wrap;rounded=0;fontSize=14;fontStyle=1" vertex="1" parent="BUdktx9oHFw2yGkDGHVQ-8">
          <mxGeometry width="200" height="30" as="geometry" />
        </mxCell>
        <mxCell id="BUdktx9oHFw2yGkDGHVQ-13" value="" style="group;strokeColor=default;dashed=1;" vertex="1" connectable="0" parent="1">
          <mxGeometry x="850" y="80" width="200" height="210" as="geometry" />
        </mxCell>
        <mxCell id="BUdktx9oHFw2yGkDGHVQ-15" value="Embedding Model" style="rounded=0;whiteSpace=wrap;html=1;fillColor=#f8cecc;strokeColor=#b85450;" vertex="1" parent="BUdktx9oHFw2yGkDGHVQ-13">
          <mxGeometry x="20" y="40" width="160" height="60" as="geometry" />
        </mxCell>
        <mxCell id="BUdktx9oHFw2yGkDGHVQ-16" value="Vector Database&lt;br&gt;&lt;i&gt;(e.g., Pinecone, Weaviate)&lt;/i&gt;" style="shape=cylinder3;whiteSpace=wrap;html=1;boundedLbl=1;backgroundOutline=1;size=15;fillColor=#fff2cc;strokeColor=#d6b656;" vertex="1" parent="BUdktx9oHFw2yGkDGHVQ-13">
          <mxGeometry x="30" y="130" width="140" height="70" as="geometry" />
        </mxCell>
        <mxCell id="BUdktx9oHFw2yGkDGHVQ-14" value="3. Embedding &amp;amp; Indexing" style="text;html=1;strokeColor=none;fillColor=none;align=center;verticalAlign=middle;whiteSpace=wrap;rounded=0;fontSize=14;fontStyle=1" vertex="1" parent="BUdktx9oHFw2yGkDGHVQ-13">
          <mxGeometry width="200" height="30" as="geometry" />
        </mxCell>
        <mxCell id="BUdktx9oHFw2yGkDGHVQ-23" value="" style="group;strokeColor=default;dashed=1;" vertex="1" connectable="0" parent="1">
          <mxGeometry x="790" y="900" width="460" height="120" as="geometry" />
        </mxCell>
        <mxCell id="BUdktx9oHFw2yGkDGHVQ-24" value="5. Augmentation &amp;amp; Generation" style="text;html=1;strokeColor=none;fillColor=none;align=center;verticalAlign=middle;whiteSpace=wrap;rounded=0;fontSize=14;fontStyle=1" vertex="1" parent="BUdktx9oHFw2yGkDGHVQ-23">
          <mxGeometry width="250" height="30" as="geometry" />
        </mxCell>
        <mxCell id="BUdktx9oHFw2yGkDGHVQ-25" value="Context Augmentation" style="rounded=0;whiteSpace=wrap;html=1;fillColor=#f5f5f5;strokeColor=#666666;" vertex="1" parent="BUdktx9oHFw2yGkDGHVQ-23">
          <mxGeometry x="40" y="45" width="140" height="60" as="geometry" />
        </mxCell>
        <mxCell id="BUdktx9oHFw2yGkDGHVQ-26" value="Large Language Model (LLM)&lt;br&gt;&lt;i&gt;(e.g., GPT-4, Llama 3)&lt;/i&gt;" style="shape=cloud;whiteSpace=wrap;html=1;fillColor=#f8cecc;strokeColor=#b85450;" vertex="1" parent="BUdktx9oHFw2yGkDGHVQ-23">
          <mxGeometry x="260" y="30" width="180" height="80" as="geometry" />
        </mxCell>
        <mxCell id="BUdktx9oHFw2yGkDGHVQ-27" value="" style="group;strokeColor=default;dashed=1;" vertex="1" connectable="0" parent="1">
          <mxGeometry x="10" y="1100" width="720" height="100" as="geometry" />
        </mxCell>
        <mxCell id="BUdktx9oHFw2yGkDGHVQ-28" value="6. Response Delivery" style="text;html=1;strokeColor=none;fillColor=none;align=center;verticalAlign=middle;whiteSpace=wrap;rounded=0;fontSize=14;fontStyle=1" vertex="1" parent="BUdktx9oHFw2yGkDGHVQ-27">
          <mxGeometry width="200" height="30" as="geometry" />
        </mxCell>
        <mxCell id="BUdktx9oHFw2yGkDGHVQ-29" value="Generated Response" style="shape=document;whiteSpace=wrap;html=1;boundedLbl=1;fillColor=#d5e8d4;strokeColor=#82b366;" vertex="1" parent="BUdktx9oHFw2yGkDGHVQ-27">
          <mxGeometry x="580" y="10" width="120" height="80" as="geometry" />
        </mxCell>
        <mxCell id="BUdktx9oHFw2yGkDGHVQ-30" value="" style="endArrow=classic;html=1;rounded=0;entryX=0;entryY=0.5;" edge="1" parent="1" target="BUdktx9oHFw2yGkDGHVQ-10">
          <mxGeometry width="50" height="50" relative="1" as="geometry">
            <mxPoint x="390" y="160" as="sourcePoint" />
            <mxPoint x="360" y="215" as="targetPoint" />
          </mxGeometry>
        </mxCell>
        <mxCell id="BUdktx9oHFw2yGkDGHVQ-31" value="" style="endArrow=classic;html=1;rounded=0;exitX=0.5;exitY=1;entryX=0.5;entryY=0;" edge="1" parent="1" source="BUdktx9oHFw2yGkDGHVQ-10" target="BUdktx9oHFw2yGkDGHVQ-11">
          <mxGeometry width="50" height="50" relative="1" as="geometry">
            <mxPoint x="400" y="190" as="sourcePoint" />
            <mxPoint x="450" y="140" as="targetPoint" />
          </mxGeometry>
        </mxCell>
        <mxCell id="BUdktx9oHFw2yGkDGHVQ-32" value="" style="endArrow=classic;html=1;rounded=0;exitX=0.5;exitY=1;entryX=0.5;entryY=0;" edge="1" parent="1" source="BUdktx9oHFw2yGkDGHVQ-11" target="BUdktx9oHFw2yGkDGHVQ-12">
          <mxGeometry width="50" height="50" relative="1" as="geometry">
            <mxPoint x="400" y="260" as="sourcePoint" />
            <mxPoint x="450" y="210" as="targetPoint" />
          </mxGeometry>
        </mxCell>
        <mxCell id="BUdktx9oHFw2yGkDGHVQ-33" value="" style="endArrow=classic;html=1;rounded=0;exitX=1;exitY=0.5;entryX=0;entryY=0.5;" edge="1" parent="1" source="BUdktx9oHFw2yGkDGHVQ-12" target="BUdktx9oHFw2yGkDGHVQ-15">
          <mxGeometry width="50" height="50" relative="1" as="geometry">
            <mxPoint x="510" y="290" as="sourcePoint" />
            <mxPoint x="580" y="200" as="targetPoint" />
          </mxGeometry>
        </mxCell>
        <mxCell id="BUdktx9oHFw2yGkDGHVQ-34" value="" style="endArrow=classic;html=1;rounded=0;exitX=0.5;exitY=1;entryX=0.5;entryY=0;" edge="1" parent="1" source="BUdktx9oHFw2yGkDGHVQ-15" target="BUdktx9oHFw2yGkDGHVQ-16">
          <mxGeometry width="50" height="50" relative="1" as="geometry">
            <mxPoint x="660" y="190" as="sourcePoint" />
            <mxPoint x="710" y="140" as="targetPoint" />
          </mxGeometry>
        </mxCell>
        <mxCell id="BUdktx9oHFw2yGkDGHVQ-38" value="" style="endArrow=classic;html=1;rounded=0;exitX=0.5;exitY=1;entryX=0.5;entryY=0;edgeStyle=orthogonalEdgeStyle;" edge="1" parent="1" source="BUdktx9oHFw2yGkDGHVQ-16" target="BUdktx9oHFw2yGkDGHVQ-22">
          <mxGeometry width="50" height="50" relative="1" as="geometry">
            <mxPoint x="660" y="300" as="sourcePoint" />
            <mxPoint x="680" y="500" as="targetPoint" />
          </mxGeometry>
        </mxCell>
        <mxCell id="BUdktx9oHFw2yGkDGHVQ-40" value="Augmented Prompt" style="endArrow=classic;html=1;rounded=0;exitX=1;exitY=0.5;entryX=0;entryY=0.5;" edge="1" parent="1" source="BUdktx9oHFw2yGkDGHVQ-25" target="BUdktx9oHFw2yGkDGHVQ-26">
          <mxGeometry width="50" height="50" relative="1" as="geometry">
            <mxPoint x="190" y="775" as="sourcePoint" />
            <mxPoint x="240" y="725" as="targetPoint" />
          </mxGeometry>
        </mxCell>
        <mxCell id="BUdktx9oHFw2yGkDGHVQ-41" value="" style="endArrow=classic;html=1;rounded=0;exitX=0.5;exitY=1;entryX=0.5;entryY=0;edgeStyle=orthogonalEdgeStyle;" edge="1" parent="1" source="BUdktx9oHFw2yGkDGHVQ-26" target="BUdktx9oHFw2yGkDGHVQ-29">
          <mxGeometry width="50" height="50" relative="1" as="geometry">
            <mxPoint x="630" y="810" as="sourcePoint" />
            <mxPoint x="680" y="760" as="targetPoint" />
          </mxGeometry>
        </mxCell>
        <mxCell id="BUdktx9oHFw2yGkDGHVQ-42" value="Answer" style="endArrow=classic;html=1;rounded=0;exitX=0;exitY=0.5;entryX=0.5;entryY=1;edgeStyle=orthogonalEdgeStyle;entryDx=0;entryDy=0;" edge="1" parent="1" source="BUdktx9oHFw2yGkDGHVQ-29" target="BUdktx9oHFw2yGkDGHVQ-20">
          <mxGeometry width="50" height="50" relative="1" as="geometry">
            <mxPoint x="570" y="900" as="sourcePoint" />
            <mxPoint x="270" y="680" as="targetPoint" />
          </mxGeometry>
        </mxCell>
        <mxCell id="BUdktx9oHFw2yGkDGHVQ-17" value="" style="group;strokeColor=default;dashed=1;" vertex="1" connectable="0" parent="1">
          <mxGeometry x="120" y="670" width="720" height="150" as="geometry" />
        </mxCell>
        <mxCell id="BUdktx9oHFw2yGkDGHVQ-18" value="4. User Query &amp;amp; Retrieval&amp;nbsp;" style="text;html=1;strokeColor=none;fillColor=none;align=center;verticalAlign=middle;whiteSpace=wrap;rounded=0;fontSize=14;fontStyle=1" vertex="1" parent="BUdktx9oHFw2yGkDGHVQ-17">
          <mxGeometry width="220" height="30" as="geometry" />
        </mxCell>
        <mxCell id="BUdktx9oHFw2yGkDGHVQ-20" value="&lt;b&gt;User Interface&lt;/b&gt;" style="shape=parallelogram;perimeter=parallelogramPerimeter;whiteSpace=wrap;html=1;fixedSize=1;fillColor=#e1d5e7;strokeColor=#9673a6;align=center;" vertex="1" parent="BUdktx9oHFw2yGkDGHVQ-17">
          <mxGeometry x="100" y="50" width="210" height="80" as="geometry" />
        </mxCell>
        <mxCell id="BUdktx9oHFw2yGkDGHVQ-21" value="Query Embedding" style="rounded=0;whiteSpace=wrap;html=1;fillColor=#f8cecc;strokeColor=#b85450;" vertex="1" parent="BUdktx9oHFw2yGkDGHVQ-17">
          <mxGeometry x="370" y="60" width="120" height="60" as="geometry" />
        </mxCell>
        <mxCell id="BUdktx9oHFw2yGkDGHVQ-22" value="Similarity Search" style="rhombus;whiteSpace=wrap;html=1;fillColor=#d5e8d4;strokeColor=#82b366;" vertex="1" parent="BUdktx9oHFw2yGkDGHVQ-17">
          <mxGeometry x="560" y="50" width="120" height="80" as="geometry" />
        </mxCell>
        <mxCell id="BUdktx9oHFw2yGkDGHVQ-35" value="Query" style="endArrow=classic;html=1;rounded=0;" edge="1" parent="BUdktx9oHFw2yGkDGHVQ-17" target="BUdktx9oHFw2yGkDGHVQ-20">
          <mxGeometry width="50" height="50" relative="1" as="geometry">
            <mxPoint x="60" y="90" as="sourcePoint" />
            <mxPoint x="90" y="-170" as="targetPoint" />
          </mxGeometry>
        </mxCell>
        <mxCell id="BUdktx9oHFw2yGkDGHVQ-36" value="" style="endArrow=classic;html=1;rounded=0;exitX=1;exitY=0.5;entryX=0;entryY=0.5;" edge="1" parent="BUdktx9oHFw2yGkDGHVQ-17" source="BUdktx9oHFw2yGkDGHVQ-20" target="BUdktx9oHFw2yGkDGHVQ-21">
          <mxGeometry width="50" height="50" relative="1" as="geometry">
            <mxPoint x="280" y="-70" as="sourcePoint" />
            <mxPoint x="330" y="-120" as="targetPoint" />
          </mxGeometry>
        </mxCell>
        <mxCell id="BUdktx9oHFw2yGkDGHVQ-37" value="" style="endArrow=classic;html=1;rounded=0;exitX=1;exitY=0.5;entryX=0;entryY=0.5;" edge="1" parent="BUdktx9oHFw2yGkDGHVQ-17" source="BUdktx9oHFw2yGkDGHVQ-21" target="BUdktx9oHFw2yGkDGHVQ-22">
          <mxGeometry width="50" height="50" relative="1" as="geometry">
            <mxPoint x="460" y="-70" as="sourcePoint" />
            <mxPoint x="510" y="-120" as="targetPoint" />
          </mxGeometry>
        </mxCell>
        <mxCell id="BUdktx9oHFw2yGkDGHVQ-44" value="&lt;b&gt;&lt;i&gt;USER&lt;/i&gt;&lt;/b&gt;" style="rounded=0;whiteSpace=wrap;html=1;" vertex="1" parent="BUdktx9oHFw2yGkDGHVQ-17">
          <mxGeometry x="-60" y="60" width="120" height="60" as="geometry" />
        </mxCell>
        <mxCell id="BUdktx9oHFw2yGkDGHVQ-39" value="Retrieved Context" style="endArrow=classic;html=1;rounded=0;entryX=0;entryY=0.5;edgeStyle=orthogonalEdgeStyle;exitX=0.5;exitY=1;exitDx=0;exitDy=0;entryDx=0;entryDy=0;" edge="1" parent="1" source="BUdktx9oHFw2yGkDGHVQ-22" target="BUdktx9oHFw2yGkDGHVQ-25">
          <mxGeometry width="50" height="50" relative="1" as="geometry">
            <mxPoint x="770" y="790" as="sourcePoint" />
            <mxPoint x="440" y="680" as="targetPoint" />
            <Array as="points">
              <mxPoint x="740" y="975" />
            </Array>
          </mxGeometry>
        </mxCell>
      </root>
    </mxGraphModel>
  </diagram>
</mxfile>
